<?xml version="1.0" encoding="UTF-8"?>
<svg version="1.1" xmlns="http://www.w3.org/2000/svg" width="102" height="102">
<path d="M0 0 C2.7178009 1.98326012 4.71557174 3.46425602 6.30859375 6.46484375 C8.4242309 9.63585647 10.27379342 10.38393677 13.75 11.875 C23.19101819 16.36204604 28.31747503 22.22057938 32 32 C33.13469239 35.74214718 34.13206068 39.52012231 35.11450195 43.3046875 C36.56071172 48.77082159 38.45178632 53.71249016 41.08203125 58.73828125 C43.47759837 64.64055088 41.10931908 70.36315208 38.77734375 75.90625 C34.084734 86.01725981 28.71621195 90.28026809 19.13671875 95.60546875 C16.73265717 96.97460146 16.73265717 96.97460146 15 100 C13.12704468 100.36076355 13.12704468 100.36076355 10.82568359 100.34057617 C9.53457169 100.34023628 9.53457169 100.34023628 8.21737671 100.33988953 C7.28712677 100.32440567 6.35687683 100.30892181 5.3984375 100.29296875 C4.44683746 100.28872391 3.49523743 100.28447906 2.51480103 100.28010559 C-0.53208414 100.26327896 -3.57831391 100.22561954 -6.625 100.1875 C-8.68749046 100.17245831 -10.74999127 100.15876901 -12.8125 100.14648438 C-17.8752535 100.11336239 -22.93751554 100.06155284 -28 100 C-28.45721436 98.87803223 -28.91442871 97.75606445 -29.38549805 96.60009766 C-30.97684309 93.05163645 -31.50411685 92.08465757 -34.8125 90.375 C-43.10043835 85.67799655 -48.36419566 79.77366664 -52.3125 71.125 C-54.10481125 62.97813069 -55.01381685 55.61556886 -51 48 C-48.4375 44.9375 -48.4375 44.9375 -46 43 C-45.34 43 -44.68 43 -44 43 C-43.84144531 42.46632812 -43.68289062 41.93265625 -43.51953125 41.3828125 C-40.00027106 30.144512 -35.12945146 18.82246664 -24.37109375 12.8828125 C-20.9694352 11.12496618 -17.50834772 9.5324384 -14 8 C-14.99 6.68 -15.98 5.36 -17 4 C-13.28424249 1.52282833 -11.40013262 1.69654258 -7 2 C-4.0625 3 -4.0625 3 -2 4 C-2 3.01 -2 2.02 -2 1 C-1.34 0.67 -0.68 0.34 0 0 Z " fill="#FBFAEE" transform="translate(57,2)"/>
<path d="M0 0 C0.66 0 1.32 0 2 0 C2.495 3.96 2.495 3.96 3 8 C2.360625 7.525625 1.72125 7.05125 1.0625 6.5625 C-2.92181519 4.52968613 -6.58494074 4.2789471 -11 4 C-10.4946875 4.34933594 -9.989375 4.69867188 -9.46875 5.05859375 C-8.49421875 5.74115234 -8.49421875 5.74115234 -7.5 6.4375 C-6.52546875 7.11619141 -6.52546875 7.11619141 -5.53125 7.80859375 C-5.0259375 8.20175781 -4.520625 8.59492188 -4 9 C-4 9.33 -4 9.66 -4 10 C-5.0725 10.12375 -6.145 10.2475 -7.25 10.375 C-11.45195435 10.99505456 -11.45195435 10.99505456 -15 13 C-16.0650015 14.96615661 -17.06833174 16.96726926 -18 19 C-20 21 -20 21 -23.125 21.125 C-24.548125 21.063125 -24.548125 21.063125 -26 21 C-26 21.66 -26 22.32 -26 23 C-27.65 22.67 -29.3 22.34 -31 22 C-31.26167969 22.65871094 -31.52335937 23.31742188 -31.79296875 23.99609375 C-32.19128906 24.98738281 -32.58960937 25.97867187 -33 27 C-33.24443848 27.6098877 -33.48887695 28.21977539 -33.74072266 28.84814453 C-34.58262305 30.92625309 -35.44622858 32.99444285 -36.3125 35.0625 C-36.59544922 35.76955078 -36.87839844 36.47660156 -37.16992188 37.20507812 C-39.09482883 41.75059012 -40.96945804 43.99617097 -45 47 C-45 47.99 -45 48.98 -45 50 C-45.66 50.99 -46.32 51.98 -47 53 C-47.5581954 60.54279422 -44.89672454 68.62449651 -41 75 C-38.93224489 75.91681584 -38.93224489 75.91681584 -37 76 C-36.505 75.01 -36.505 75.01 -36 74 C-35.06027344 74.23396484 -35.06027344 74.23396484 -34.1015625 74.47265625 C-33.28429687 74.66730469 -32.46703125 74.86195312 -31.625 75.0625 C-30.81289063 75.25972656 -30.00078125 75.45695312 -29.1640625 75.66015625 C-26.95838716 76.22109319 -26.95838716 76.22109319 -25 75 C-25.47738139 69.98749545 -26.91386754 66.96788459 -30 63 C-31.31963709 61.98199424 -32.65009646 60.97751635 -34 60 C-34.33 59.01 -34.66 58.02 -35 57 C-34.29875 56.72929688 -33.5975 56.45859375 -32.875 56.1796875 C-25.43386543 52.80286828 -22.16323875 49.10555547 -18.7265625 41.93896484 C-16.75591401 37.89759588 -15.14898701 35.82040825 -11 34 C-6.09683488 33.37737586 -4.07261808 33.40180915 0.25 35.8125 C3.58962858 38.9711189 4.71884141 42.97632457 6.04296875 47.28125 C7.7094016 52.01527964 9.74797144 55.29416364 14 58 C14.721875 58.309375 15.44375 58.61875 16.1875 58.9375 C18 60 18 60 18.75 62.125 C18.8325 62.74375 18.915 63.3625 19 64 C17.515 63.505 17.515 63.505 16 63 C15.50628906 63.85464844 15.01257813 64.70929688 14.50390625 65.58984375 C13.86324219 66.69457031 13.22257812 67.79929687 12.5625 68.9375 C11.92441406 70.03964844 11.28632812 71.14179687 10.62890625 72.27734375 C9 75 9 75 8 76 C7.76924918 77.34747084 7.58846937 78.70377565 7.4375 80.0625 C7.293125 81.361875 7.14875 82.66125 7 84 C11.73085571 82.71838718 11.73085571 82.71838718 16.3125 81 C20.38701886 79.48389996 24.65547988 78.32399811 29 78 C30.485 78.99 30.485 78.99 32 80 C29.36 82.64 26.72 85.28 24 88 C30.263088 85.4947648 33.85525926 81.95533709 37.078125 76.01171875 C39.43709094 70.24150304 40 64.18991471 40 58 C39.2752535 56.70233136 38.49594372 55.43474502 37.6875 54.1875 C34.75805962 49.13503823 33.83663062 44.12950604 32.73828125 38.44140625 C30.88064204 29.78225204 27.81175627 22.36750363 20.41015625 17.1875 C16.77473868 14.84521754 13.11392288 12.59645653 9.30078125 10.5546875 C6.74553994 8.82805585 5.92125297 7.59986781 4.6875 4.8125 C4.19830078 3.73935547 4.19830078 3.73935547 3.69921875 2.64453125 C3.35310547 1.83048828 3.35310547 1.83048828 3 1 C5.8423632 2.07813777 6.85865808 2.75146055 8.390625 5.4453125 C10.43117048 8.68443081 12.26276092 9.37920456 15.75 10.875 C25.19101819 15.36204604 30.31747503 21.22057938 34 31 C35.13469239 34.74214718 36.13206068 38.52012231 37.11450195 42.3046875 C38.56071172 47.77082159 40.45178632 52.71249016 43.08203125 57.73828125 C45.47759837 63.64055088 43.10931908 69.36315208 40.77734375 74.90625 C36.084734 85.01725981 30.71621195 89.28026809 21.13671875 94.60546875 C18.73265717 95.97460146 18.73265717 95.97460146 17 99 C15.12704468 99.36076355 15.12704468 99.36076355 12.82568359 99.34057617 C11.53457169 99.34023628 11.53457169 99.34023628 10.21737671 99.33988953 C9.28712677 99.32440567 8.35687683 99.30892181 7.3984375 99.29296875 C6.44683746 99.28872391 5.49523743 99.28447906 4.51480103 99.28010559 C1.46791586 99.26327896 -1.57831391 99.22561954 -4.625 99.1875 C-6.68749046 99.17245831 -8.74999127 99.15876901 -10.8125 99.14648438 C-15.8752535 99.11336239 -20.93751554 99.06155284 -26 99 C-26.45721436 97.87803223 -26.91442871 96.75606445 -27.38549805 95.60009766 C-28.97684309 92.05163645 -29.50411685 91.08465757 -32.8125 89.375 C-41.10043835 84.67799655 -46.36419566 78.77366664 -50.3125 70.125 C-52.10481125 61.97813069 -53.01381685 54.61556886 -49 47 C-46.4375 43.9375 -46.4375 43.9375 -44 42 C-43.34 42 -42.68 42 -42 42 C-41.84144531 41.46632812 -41.68289062 40.93265625 -41.51953125 40.3828125 C-38.00027106 29.144512 -33.12945146 17.82246664 -22.37109375 11.8828125 C-18.9694352 10.12496618 -15.50834772 8.5324384 -12 7 C-12.99 5.68 -13.98 4.36 -15 3 C-11.28424249 0.52282833 -9.40013262 0.69654258 -5 1 C-2.0625 2 -2.0625 2 0 3 C0 2.01 0 1.02 0 0 Z " fill="#6F200F" transform="translate(55,3)"/>
<path d="M0 0 C0.66 0 1.32 0 2 0 C2.495 3.96 2.495 3.96 3 8 C2.360625 7.525625 1.72125 7.05125 1.0625 6.5625 C-2.92181519 4.52968613 -6.58494074 4.2789471 -11 4 C-10.4946875 4.34933594 -9.989375 4.69867188 -9.46875 5.05859375 C-8.49421875 5.74115234 -8.49421875 5.74115234 -7.5 6.4375 C-6.52546875 7.11619141 -6.52546875 7.11619141 -5.53125 7.80859375 C-5.0259375 8.20175781 -4.520625 8.59492188 -4 9 C-4 9.33 -4 9.66 -4 10 C-5.0725 10.12375 -6.145 10.2475 -7.25 10.375 C-11.45195435 10.99505456 -11.45195435 10.99505456 -15 13 C-16.0650015 14.96615661 -17.06833174 16.96726926 -18 19 C-20 21 -20 21 -23.125 21.125 C-24.548125 21.063125 -24.548125 21.063125 -26 21 C-26 21.66 -26 22.32 -26 23 C-27.65 22.67 -29.3 22.34 -31 22 C-31.26167969 22.65871094 -31.52335937 23.31742188 -31.79296875 23.99609375 C-32.19128906 24.98738281 -32.58960937 25.97867187 -33 27 C-33.24443848 27.6098877 -33.48887695 28.21977539 -33.74072266 28.84814453 C-34.58262305 30.92625309 -35.44622858 32.99444285 -36.3125 35.0625 C-36.59544922 35.76955078 -36.87839844 36.47660156 -37.16992188 37.20507812 C-39.09482883 41.75059012 -40.96945804 43.99617097 -45 47 C-45 47.99 -45 48.98 -45 50 C-45.66 50.99 -46.32 51.98 -47 53 C-47.5581954 60.54279422 -44.89672454 68.62449651 -41 75 C-38.93224489 75.91681584 -38.93224489 75.91681584 -37 76 C-36.505 75.01 -36.505 75.01 -36 74 C-35.39671875 74.15597656 -34.7934375 74.31195313 -34.171875 74.47265625 C-33.37265625 74.66730469 -32.5734375 74.86195312 -31.75 75.0625 C-30.96109375 75.25972656 -30.1721875 75.45695312 -29.359375 75.66015625 C-26.89605178 76.01497267 -25.34395868 75.76877544 -23 75 C-22.84144531 75.74765625 -22.68289062 76.4953125 -22.51953125 77.265625 C-21.08768268 83.40530083 -21.08768268 83.40530083 -17.8125 88.6875 C-14.10066577 90.41968931 -10.97405657 90.72807143 -7 90 C-1.3261271 87.65219053 1.40087729 84.64256483 4.8359375 79.609375 C5.41214844 78.81273438 5.41214844 78.81273438 6 78 C6.33 78 6.66 78 7 78 C7 79.98 7 81.96 7 84 C11.73085571 82.71838718 11.73085571 82.71838718 16.3125 81 C20.38701886 79.48389996 24.65547988 78.32399811 29 78 C30.485 78.99 30.485 78.99 32 80 C29.36 82.64 26.72 85.28 24 88 C30.263088 85.4947648 33.85525926 81.95533709 37.078125 76.01171875 C39.43709094 70.24150304 40 64.18991471 40 58 C39.2752535 56.70233136 38.49594372 55.43474502 37.6875 54.1875 C34.75805962 49.13503823 33.83663062 44.12950604 32.73828125 38.44140625 C30.88064204 29.78225204 27.81175627 22.36750363 20.41015625 17.1875 C16.77473868 14.84521754 13.11392288 12.59645653 9.30078125 10.5546875 C6.74553994 8.82805585 5.92125297 7.59986781 4.6875 4.8125 C4.19830078 3.73935547 4.19830078 3.73935547 3.69921875 2.64453125 C3.35310547 1.83048828 3.35310547 1.83048828 3 1 C5.8423632 2.07813777 6.85865808 2.75146055 8.390625 5.4453125 C10.43117048 8.68443081 12.26276092 9.37920456 15.75 10.875 C25.19101819 15.36204604 30.31747503 21.22057938 34 31 C35.13469239 34.74214718 36.13206068 38.52012231 37.11450195 42.3046875 C38.56071172 47.77082159 40.45178632 52.71249016 43.08203125 57.73828125 C45.47759837 63.64055088 43.10931908 69.36315208 40.77734375 74.90625 C36.084734 85.01725981 30.71621195 89.28026809 21.13671875 94.60546875 C18.73265717 95.97460146 18.73265717 95.97460146 17 99 C15.12704468 99.36076355 15.12704468 99.36076355 12.82568359 99.34057617 C11.53457169 99.34023628 11.53457169 99.34023628 10.21737671 99.33988953 C9.28712677 99.32440567 8.35687683 99.30892181 7.3984375 99.29296875 C6.44683746 99.28872391 5.49523743 99.28447906 4.51480103 99.28010559 C1.46791586 99.26327896 -1.57831391 99.22561954 -4.625 99.1875 C-6.68749046 99.17245831 -8.74999127 99.15876901 -10.8125 99.14648438 C-15.8752535 99.11336239 -20.93751554 99.06155284 -26 99 C-26.45721436 97.87803223 -26.91442871 96.75606445 -27.38549805 95.60009766 C-28.97684309 92.05163645 -29.50411685 91.08465757 -32.8125 89.375 C-41.10043835 84.67799655 -46.36419566 78.77366664 -50.3125 70.125 C-52.10481125 61.97813069 -53.01381685 54.61556886 -49 47 C-46.4375 43.9375 -46.4375 43.9375 -44 42 C-43.34 42 -42.68 42 -42 42 C-41.84144531 41.46632812 -41.68289062 40.93265625 -41.51953125 40.3828125 C-38.00027106 29.144512 -33.12945146 17.82246664 -22.37109375 11.8828125 C-18.9694352 10.12496618 -15.50834772 8.5324384 -12 7 C-12.99 5.68 -13.98 4.36 -15 3 C-11.28424249 0.52282833 -9.40013262 0.69654258 -5 1 C-2.0625 2 -2.0625 2 0 3 C0 2.01 0 1.02 0 0 Z " fill="#BEB9BD" transform="translate(55,3)"/>
<path d="M0 0 C12.18388605 7.14787982 16.42802941 15.5802061 20 29 C20.14179687 30.2065625 20.28359375 31.413125 20.4296875 32.65625 C21.05359843 36.31424831 22.14983366 37.978819 24.3125 40.9375 C27.21596383 45.97852593 27.16952729 49.68261265 25.75 55.1875 C23.96875518 61.35749619 21.60713844 66.47249111 17 71 C16.46761719 71.53367187 15.93523437 72.06734375 15.38671875 72.6171875 C13.8125 74.0625 13.8125 74.0625 11 76 C9.515 75.505 9.515 75.505 8 75 C10.64 72.36 13.28 69.72 16 67 C11.24906954 66.04981391 9.72163179 66.04329562 5.3125 67.3125 C4.35988281 67.57675781 3.40726563 67.84101562 2.42578125 68.11328125 C-0.13836963 68.85746119 -0.13836963 68.85746119 -2 71 C-3.98821313 71.39764263 -5.98944339 71.73775349 -8 72 C-9.57365492 68.85269016 -9.04074999 66.23089971 -8 63 C-5.23988254 57.9256302 -2.26897697 52.94443486 2 49 C2.495 48.505 2.495 48.505 3 48 C3.99 47.505 3.99 47.505 5 47 C4.13277572 42.95295336 2.95201883 39.95201883 0 37 C0 36.67 0 36.34 0 36 C-1.98 36 -3.96 36 -6 36 C-6 33.69 -6 31.38 -6 29 C-6.66 29 -7.32 29 -8 29 C-8.38281159 23.76824163 -7.21854707 20.62197306 -5 16 C-4.34 16 -3.68 16 -3 16 C-1.88158632 13.91229447 -1.0291824 12.14591199 -0.5625 9.8125 C-0.376875 9.214375 -0.19125 8.61625 0 8 C0.99 7.67 1.98 7.34 3 7 C1.35 5.02 -0.3 3.04 -2 1 C-1.34 0.67 -0.68 0.34 0 0 Z " fill="#F2EDDE" transform="translate(70,16)"/>
<path d="M0 0 C2.65298379 1.39630726 4.62365425 2.46969463 6.375 4.9375 C7 7 7 7 6.4375 9.0625 C6.293125 9.701875 6.14875 10.34125 6 11 C8.16164096 14.30603911 11.38568559 14.85244291 15 16 C8.29112776 30.11106259 8.29112776 30.11106259 1 33 C0.195625 33.4125 -0.60875 33.825 -1.4375 34.25 C-1.953125 34.4975 -2.46875 34.745 -3 35 C-2.67 35.66 -2.34 36.32 -2 37 C-1.67 37.99 -1.34 38.98 -1 40 C-0.401875 40.2475 0.19625 40.495 0.8125 40.75 C4.13526419 42.64872239 5.56371019 45.51400495 7 49 C7.25 51.9375 7.25 51.9375 7 54 C3.10885099 55.01911045 1.39403493 55.16782969 -2.375 53.5625 C-3.24125 53.046875 -4.1075 52.53125 -5 52 C-5.33 52.99 -5.66 53.98 -6 55 C-8.29296875 54.48046875 -8.29296875 54.48046875 -11 53 C-12.3682663 50.37922096 -13.36769681 48.07710882 -14.3125 45.3125 C-14.57611328 44.61705078 -14.83972656 43.92160156 -15.11132812 43.20507812 C-16.73199925 38.69666571 -17.41072326 34.84898654 -17 30 C-15.5 28.25 -15.5 28.25 -14 27 C-14 26.01 -14 25.02 -14 24 C-13.25105469 23.28070313 -12.50210937 22.56140625 -11.73046875 21.8203125 C-8.4478899 18.42972319 -7.04164828 15.19984012 -5.3125 10.875 C-2.18374558 3.27561837 -2.18374558 3.27561837 0 0 Z " fill="#F7F2E5" transform="translate(24,25)"/>
<path d="M0 0 C5.70529277 3.18179789 7.26691028 7.16881409 9.25390625 13.26171875 C10.14482431 16.53152795 10.70018899 19.62712618 11 23 C13.475 23.99 13.475 23.99 16 25 C16 25.99 16 26.98 16 28 C12.34810823 31.1954053 9.24720175 32.68856992 4.328125 32.47265625 C1.3744222 31.87299511 -1.12800586 30.73614736 -3.875 29.5 C-11.46936451 26.1055492 -17.9382433 26.30278806 -26 28 C-26.66 26.68 -27.32 25.36 -28 24 C-27.278125 23.443125 -26.55625 22.88625 -25.8125 22.3125 C-19.34520115 16.99494316 -15.73184481 11.97905384 -13 4.125 C-12 2 -12 2 -10.375 0.6875 C-6.83924336 -0.3360085 -3.60773448 -0.64075593 0 0 Z " fill="#F9A33F" transform="translate(52,37)"/>
<path d="M0 0 C6.17933943 3.62521247 11.78758342 7.3905452 15 14 C15.46287142 16.87179363 15.30867153 19.06762042 15 22 C15 22.33 15 22.66 15 23 C15 23.66 15 24.32 15 25 C14.01 25.66 13.02 26.32 12 27 C10.78715124 30.05429073 10.78715124 30.05429073 10 33 C9.278125 32.67 8.55625 32.34 7.8125 32 C4.86902488 30.95343107 3.08764467 30.61404442 0 31 C-2.76441969 32.40759341 -2.76441969 32.40759341 -5 34 C-5.33 32.35 -5.66 30.7 -6 29 C-6.66 29 -7.32 29 -8 29 C-8.38281159 23.76824163 -7.21854707 20.62197306 -5 16 C-4.34 16 -3.68 16 -3 16 C-1.88158632 13.91229447 -1.0291824 12.14591199 -0.5625 9.8125 C-0.376875 9.214375 -0.19125 8.61625 0 8 C0.99 7.67 1.98 7.34 3 7 C1.35 5.02 -0.3 3.04 -2 1 C-1.34 0.67 -0.68 0.34 0 0 Z " fill="#F2EDDF" transform="translate(70,16)"/>
<path d="M0 0 C0.75732422 0.00966797 1.51464844 0.01933594 2.29492188 0.02929688 C3.47344727 0.06700195 3.47344727 0.06700195 4.67578125 0.10546875 C5.47306641 0.11900391 6.27035156 0.13253906 7.09179688 0.14648438 C9.05758092 0.18179786 11.02301707 0.23560428 12.98828125 0.29296875 C10.7596326 8.07247522 8.51455577 12.53964 1.98828125 17.29296875 C1.26640625 18.07671875 0.54453125 18.86046875 -0.19921875 19.66796875 C-2.01171875 21.29296875 -2.01171875 21.29296875 -6.01171875 21.29296875 C-6.01171875 21.95296875 -6.01171875 22.61296875 -6.01171875 23.29296875 C-9.93610661 24.95786057 -13.90272294 26.16500912 -18.01171875 27.29296875 C-19.58537367 24.14565891 -19.05246874 21.52386846 -18.01171875 18.29296875 C-15.25160129 13.21859895 -12.28069572 8.23740361 -8.01171875 4.29296875 C-6.92553412 3.23382187 -6.92553412 3.23382187 -5.69995117 1.7487793 C-3.62382874 -0.04151977 -2.70132891 -0.06093223 0 0 Z " fill="#F2ECE1" transform="translate(80.01171875,60.70703125)"/>
<path d="M0 0 C0.66 0 1.32 0 2 0 C2.495 3.96 2.495 3.96 3 8 C2.360625 7.525625 1.72125 7.05125 1.0625 6.5625 C-2.92181519 4.52968613 -6.58494074 4.2789471 -11 4 C-10.4946875 4.34933594 -9.989375 4.69867188 -9.46875 5.05859375 C-8.49421875 5.74115234 -8.49421875 5.74115234 -7.5 6.4375 C-6.52546875 7.11619141 -6.52546875 7.11619141 -5.53125 7.80859375 C-5.0259375 8.20175781 -4.520625 8.59492188 -4 9 C-4 9.33 -4 9.66 -4 10 C-5.0725 10.12375 -6.145 10.2475 -7.25 10.375 C-11.45195435 10.99505456 -11.45195435 10.99505456 -15 13 C-16.0650015 14.96615661 -17.06833174 16.96726926 -18 19 C-20 21 -20 21 -23.125 21.125 C-24.548125 21.063125 -24.548125 21.063125 -26 21 C-26 21.66 -26 22.32 -26 23 C-27.65 22.67 -29.3 22.34 -31 22 C-31.26167969 22.65871094 -31.52335937 23.31742188 -31.79296875 23.99609375 C-32.19128906 24.98738281 -32.58960937 25.97867187 -33 27 C-33.24443848 27.6098877 -33.48887695 28.21977539 -33.74072266 28.84814453 C-34.58262305 30.92625309 -35.44622858 32.99444285 -36.3125 35.0625 C-36.59544922 35.76955078 -36.87839844 36.47660156 -37.16992188 37.20507812 C-39.09482883 41.75059012 -40.96945804 43.99617097 -45 47 C-45 47.99 -45 48.98 -45 50 C-45.66 50.99 -46.32 51.98 -47 53 C-49.26492413 60.2185324 -48.29337136 66.83843226 -45.2421875 73.65625 C-41.3221043 81.0526334 -35.68098407 84.78686172 -28.609375 89.10546875 C-25.98938982 91.0077035 -24.96805642 91.96006672 -24 95 C-24 96.32 -24 97.64 -24 99 C-24.66 99 -25.32 99 -26 99 C-26.33 97.948125 -26.66 96.89625 -27 95.8125 C-28.73257047 91.73151648 -31.18585277 90.29686589 -34.94921875 88.1640625 C-42.30459644 83.98901002 -46.85739937 77.69331566 -50.3125 70.125 C-52.10481125 61.97813069 -53.01381685 54.61556886 -49 47 C-46.4375 43.9375 -46.4375 43.9375 -44 42 C-43.34 42 -42.68 42 -42 42 C-41.84144531 41.46632812 -41.68289062 40.93265625 -41.51953125 40.3828125 C-38.00027106 29.144512 -33.12945146 17.82246664 -22.37109375 11.8828125 C-18.9694352 10.12496618 -15.50834772 8.5324384 -12 7 C-12.99 5.68 -13.98 4.36 -15 3 C-11.28424249 0.52282833 -9.40013262 0.69654258 -5 1 C-2.0625 2 -2.0625 2 0 3 C0 2.01 0 1.02 0 0 Z " fill="#81756B" transform="translate(55,3)"/>
<path d="M0 0 C2.65298379 1.39630726 4.62365425 2.46969463 6.375 4.9375 C7 7 7 7 6.4375 9.0625 C6.293125 9.701875 6.14875 10.34125 6 11 C8.16164096 14.30603911 11.38568559 14.85244291 15 16 C8.19138459 30.32085672 8.19138459 30.32085672 1 33 C0.34 33 -0.32 33 -1 33 C-1 32.34 -1 31.68 -1 31 C-1.66 30.67 -2.32 30.34 -3 30 C-2.01 29.67 -1.02 29.34 0 29 C0 27.35 0 25.7 0 24 C-7.74338636 23.61041465 -7.74338636 23.61041465 -15 26 C-14.154375 25.175 -13.30875 24.35 -12.4375 23.5 C-8.12762226 18.54517618 -5.987217 12.54778333 -3.515625 6.546875 C-2 3 -2 3 0 0 Z " fill="#FAFBEB" transform="translate(24,25)"/>
<path d="M0 0 C5.35163277 4.2443984 6.73526028 10.5555286 7.6875 17.0625 C7.8421875 18.5165625 7.8421875 18.5165625 8 20 C10.475 20.99 10.475 20.99 13 22 C13 22.99 13 23.98 13 25 C9.34810823 28.1954053 6.24720175 29.68856992 1.328125 29.47265625 C-1.6255778 28.87299511 -4.12800586 27.73614736 -6.875 26.5 C-14.46936451 23.1055492 -20.9382433 23.30278806 -29 25 C-29.33 24.01 -29.66 23.02 -30 22 C-20.12189412 19.38452043 -13.3337673 18.64709142 -4.26171875 23.90625 C-1.81854528 25.29023847 -1.81854528 25.29023847 2 25 C0.02 24.34 -1.96 23.68 -4 23 C-3.979375 21.7625 -3.95875 20.525 -3.9375 19.25 C-3.92924988 16.90696493 -3.99236914 15.03052344 -4.5625 12.75 C-5.11110164 10.55559342 -4.68325879 9.12569402 -4 7 C-3.01 7 -2.02 7 -1 7 C-0.67 4.69 -0.34 2.38 0 0 Z " fill="#F68C33" transform="translate(55,40)"/>
<path d="M0 0 C0.53109375 0.40992188 1.0621875 0.81984375 1.609375 1.2421875 C2.31578125 1.78101563 3.0221875 2.31984375 3.75 2.875 C4.44609375 3.40867188 5.1421875 3.94234375 5.859375 4.4921875 C7.94160786 6.04762691 7.94160786 6.04762691 10.21875 7.0625 C12 8 12 8 12.75 10.125 C12.8325 10.74375 12.915 11.3625 13 12 C12.01 11.67 11.02 11.34 10 11 C9.61070313 11.71542969 9.22140625 12.43085937 8.8203125 13.16796875 C5.50916476 19.06547382 1.99364216 24.65405389 -2.0625 30.0625 C-2.46130371 30.60994873 -2.86010742 31.15739746 -3.27099609 31.72143555 C-6.51334894 35.94071023 -9.9057832 38.31745218 -15.125 39.46875 C-16.053125 39.48421875 -16.053125 39.48421875 -17 39.5 C-17.61875 39.5309375 -18.2375 39.561875 -18.875 39.59375 C-22.32793682 38.62895883 -24.73689339 36.69651896 -27 34 C-28.30798925 31.22993534 -29.04058757 28.41039741 -29.75 25.4375 C-30.1374001 23.93536252 -30.52792847 22.43402768 -30.921875 20.93359375 C-31.09912109 20.24120605 -31.27636719 19.54881836 -31.45898438 18.83544922 C-31.98379552 16.85563307 -31.98379552 16.85563307 -33.203125 14.59765625 C-33.46609375 14.07042969 -33.7290625 13.54320313 -34 13 C-33.67 12.34 -33.34 11.68 -33 11 C-31.1875 11.5 -31.1875 11.5 -29 13 C-26.5541562 18.38085636 -25.18796377 23.93477389 -23.84375 29.6796875 C-23.13702115 32.33649012 -23.13702115 32.33649012 -20 34 C-14.0698058 33.80870341 -11.47106895 33.07985041 -7 29 C-5.56298202 27.2576815 -4.18771001 25.46279402 -2.875 23.625 C-2.21242188 22.70976563 -1.54984375 21.79453125 -0.8671875 20.8515625 C1.00766449 17.98829482 2.5019311 15.07340209 4 12 C4.96534522 10.64136599 5.95277149 9.29656863 7 8 C6.21625 7.608125 5.4325 7.21625 4.625 6.8125 C1.64843582 4.75725331 1.01176437 3.40320742 0 0 Z " fill="#EB935F" transform="translate(61,55)"/>
<path d="M0 0 C2.8423632 1.07813777 3.85865808 1.75146055 5.390625 4.4453125 C7.43117048 7.68443081 9.26276092 8.37920456 12.75 9.875 C22.19101819 14.36204604 27.31747503 20.22057938 31 30 C32.13469239 33.74214718 33.13206068 37.52012231 34.11450195 41.3046875 C35.56071172 46.77082159 37.45178632 51.71249016 40.08203125 56.73828125 C42.47759837 62.64055088 40.10931908 68.36315208 37.77734375 73.90625 C33.084734 84.01725981 27.71621195 88.28026809 18.13671875 93.60546875 C15.73265717 94.97460146 15.73265717 94.97460146 14 98 C13.01 97.67 12.02 97.34 11 97 C13.12782634 92.78676246 14.9245155 91.19810575 19.1875 89.25 C26.28817135 85.58210354 31.81939026 80.48943104 34.9375 73 C36.5621619 67.80316483 37 62.4211266 37 57 C36.2752535 55.70233136 35.49594372 54.43474502 34.6875 53.1875 C31.75805962 48.13503823 30.83663062 43.12950604 29.73828125 37.44140625 C27.88064204 28.78225204 24.81175627 21.36750363 17.41015625 16.1875 C13.77473868 13.84521754 10.11392288 11.59645653 6.30078125 9.5546875 C3.74553994 7.82805585 2.92125297 6.59986781 1.6875 3.8125 C1.36136719 3.09707031 1.03523438 2.38164063 0.69921875 1.64453125 C0.46847656 1.10183594 0.23773438 0.55914062 0 0 Z " fill="#8C8177" transform="translate(58,4)"/>
<path d="M0 0 C5.49574923 -0.52843743 8.94359581 0.22205141 14 2.5 C20.24703301 5.29223445 25.32006258 6.22664581 32 4 C29.52468799 9.67865696 25.8873914 14.20732567 22 19 C22 16 22 16 23 13 C17.94990405 12.06213918 17.94990405 12.06213918 13 13 C11.0625 12.625 11.0625 12.625 9 12 C5.93532406 10.9706844 5.93532406 10.9706844 3 12 C2 9 2 9 2.0625 5.4375 C2.39661064 1.93385359 2.39661064 1.93385359 0 0 Z " fill="#58130B" transform="translate(34,63)"/>
<path d="M0 0 C1.65 1.32 3.3 2.64 5 4 C1.33240622 21.77704277 1.33240622 21.77704277 -5 28 C-5.79857422 28.80050781 -5.79857422 28.80050781 -6.61328125 29.6171875 C-8.1875 31.0625 -8.1875 31.0625 -11 33 C-11.99 32.67 -12.98 32.34 -14 32 C-11.36 29.36 -8.72 26.72 -6 24 C-10.66958927 23.06608215 -13.41466617 23.19082344 -18 24 C-15.66785852 22.79371992 -13.50357861 21.8345262 -11 21 C-10.71125 20.401875 -10.4225 19.80375 -10.125 19.1875 C-9 17 -9 17 -6.625 15.4375 C-2.66658456 11.76182852 -1.45477059 7.12014231 0 2 C0 1.34 0 0.68 0 0 Z " fill="#DCD2CC" transform="translate(92,59)"/>
<path d="M0 0 C2.65298379 1.39630726 4.62365425 2.46969463 6.375 4.9375 C7.11766639 7.38829909 6.6275598 8.56820579 6 11 C6.99 12.485 6.99 12.485 8 14 C8.39387788 16.32387947 8.73486085 18.65793749 9 21 C8.278125 20.505 7.55625 20.01 6.8125 19.5 C3.85151341 17.92080715 2.28746971 17.71821688 -1 18 C-1 18.66 -1 19.32 -1 20 C-2.32 19.34 -3.64 18.68 -5 18 C-5.33 18.66 -5.66 19.32 -6 20 C-6.99 19.67 -7.98 19.34 -9 19 C-7.87854082 16.39425662 -6.75300203 13.79040944 -5.625 11.1875 C-5.30789062 10.44951172 -4.99078125 9.71152344 -4.6640625 8.95117188 C-4.3546875 8.23896484 -4.0453125 7.52675781 -3.7265625 6.79296875 C-3.44377441 6.1383667 -3.16098633 5.48376465 -2.86962891 4.80932617 C-2 3 -2 3 0 0 Z " fill="#ECE4D6" transform="translate(24,25)"/>
<path d="M0 0 C0.66 0 1.32 0 2 0 C3.32 3.63 4.64 7.26 6 11 C6.66 10.67 7.32 10.34 8 10 C10.34622853 10.61975848 12.67891331 11.29187186 15 12 C16.66246041 12.35371498 18.32774271 12.69595322 20 13 C20.33 12.34 20.66 11.68 21 11 C22.85776765 14.13498292 23.20140476 16.37471432 23 20 C19.10885099 21.01911045 17.39403493 21.16782969 13.625 19.5625 C12.75875 19.046875 11.8925 18.53125 11 18 C10.67 18.99 10.34 19.98 10 21 C6.6216679 20.0631516 5.28541497 19.46441596 3.41796875 16.42578125 C-0.6864668 6.04090782 -0.6864668 6.04090782 0 0 Z " fill="#DED5CD" transform="translate(8,59)"/>
<path d="M0 0 C3.26680689 3.26680689 4.1967337 7.98643093 5.61328125 12.32226562 C6.4219775 14.73934407 6.4219775 14.73934407 8 18 C10.03812062 18.77016136 10.03812062 18.77016136 12 19 C12.33 18.34 12.66 17.68 13 17 C13.60328125 17.15597656 14.2065625 17.31195313 14.828125 17.47265625 C15.62734375 17.66730469 16.4265625 17.86195312 17.25 18.0625 C18.03890625 18.25972656 18.8278125 18.45695312 19.640625 18.66015625 C22.29473919 19.1943271 22.29473919 19.1943271 26 18 C27.485 24.435 27.485 24.435 29 31 C28.01 30.67 27.02 30.34 26 30 C25.67 27.03 25.34 24.06 25 21 C23.02 21.99 23.02 21.99 21 23 C20.319375 22.814375 19.63875 22.62875 18.9375 22.4375 C18.298125 22.293125 17.65875 22.14875 17 22 C15.22809091 23.35444301 15.22809091 23.35444301 14 25 C14.99 25.66 15.98 26.32 17 27 C17 27.66 17 28.32 17 29 C12.74285223 28.50879064 9.86712664 25.99242523 7 23 C1.47488264 15.64326839 -0.36492705 9.12317624 0 0 Z " fill="#CCC6C3" transform="translate(6,60)"/>
<path d="M0 0 C0.99 0.66 1.98 1.32 3 2 C3.29296875 4.3828125 3.29296875 4.3828125 3.1875 7.125 C3.16042969 8.03507812 3.13335937 8.94515625 3.10546875 9.8828125 C3.07066406 10.58148438 3.03585938 11.28015625 3 12 C1.68 12 0.36 12 -1 12 C-1 12.66 -1 13.32 -1 14 C-4.92438786 15.66489182 -8.89100419 16.87204037 -13 18 C-14.57499749 14.85000502 -13.70833498 12.36459118 -13 9 C-11.4375 7.0625 -11.4375 7.0625 -10 6 C-9.01 6.66 -8.02 7.32 -7 8 C-6.67 6.35 -6.34 4.7 -6 3 C-4.68 3 -3.36 3 -2 3 C-1.34 2.01 -0.68 1.02 0 0 Z " fill="#E6DED4" transform="translate(75,70)"/>
<path d="M0 0 C0.66 0 1.32 0 2 0 C2.495 3.96 2.495 3.96 3 8 C2.360625 7.525625 1.72125 7.05125 1.0625 6.5625 C-2.92181519 4.52968613 -6.58494074 4.2789471 -11 4 C-10.4946875 4.34933594 -9.989375 4.69867188 -9.46875 5.05859375 C-8.8190625 5.51363281 -8.169375 5.96867188 -7.5 6.4375 C-6.8503125 6.88996094 -6.200625 7.34242187 -5.53125 7.80859375 C-5.0259375 8.20175781 -4.520625 8.59492188 -4 9 C-4 9.33 -4 9.66 -4 10 C-5.0725 10.12375 -6.145 10.2475 -7.25 10.375 C-11.45195435 10.99505456 -11.45195435 10.99505456 -15 13 C-16.0650015 14.96615661 -17.06833174 16.96726926 -18 19 C-20 21 -20 21 -23.125 21.125 C-24.548125 21.063125 -24.548125 21.063125 -26 21 C-26 21.66 -26 22.32 -26 23 C-27.32 22.67 -28.64 22.34 -30 22 C-26.10689944 16.59989278 -21.94019945 13.92480409 -16 11 C-16.33 10.34 -16.66 9.68 -17 9 C-15.35 8.34 -13.7 7.68 -12 7 C-12.99 5.68 -13.98 4.36 -15 3 C-11.28424249 0.52282833 -9.40013262 0.69654258 -5 1 C-2.0625 2 -2.0625 2 0 3 C0 2.01 0 1.02 0 0 Z " fill="#8D8374" transform="translate(55,3)"/>
<path d="M0 0 C0.99 0.66 1.98 1.32 3 2 C4.18638696 10.30470873 -0.87073685 19.16239797 -5 26 C-9.00932225 30.75433079 -14.48875228 33.61779032 -19.86328125 36.60546875 C-22.26734283 37.97460146 -22.26734283 37.97460146 -24 41 C-24.99 40.67 -25.98 40.34 -27 40 C-24.87217366 35.78676246 -23.0754845 34.19810575 -18.8125 32.25 C-11.71182865 28.58210354 -6.18060974 23.48943104 -3.0625 16 C-1.92525876 12.38545619 -1.49119839 8.75064504 -1.2109375 4.98046875 C-1 3 -1 3 0 0 Z " fill="#6F635C" transform="translate(96,61)"/>
<path d="M0 0 C4.38379159 3.7820947 5.70973832 9.57733099 6.1875 15.2109375 C6.1875 16.80851469 6.10396895 18.40580951 6 20 C2.52128379 21.15957207 1.65780355 20.77456651 -1.6875 19.5625 C-2.89986328 19.13130859 -2.89986328 19.13130859 -4.13671875 18.69140625 C-4.75160156 18.46324219 -5.36648437 18.23507813 -6 18 C-5.34 17.67 -4.68 17.34 -4 17 C-3.59270772 14.67843403 -3.25561323 12.3431213 -3 10 C-1.68 9.67 -0.36 9.34 1 9 C1 8.34 1 7.68 1 7 C0.34 7 -0.32 7 -1 7 C-0.67 4.69 -0.34 2.38 0 0 Z " fill="#F0E9DD" transform="translate(84,32)"/>
<path d="M0 0 C3 2 3 2 5 4 C4.125 7.875 4.125 7.875 3 9 C0.85546875 9.203125 0.85546875 9.203125 -1.8125 9.25 C-2.68519531 9.27578125 -3.55789062 9.3015625 -4.45703125 9.328125 C-7.43904377 8.94334919 -8.7771114 7.96899223 -11 6 C-10.625 3.5625 -10.625 3.5625 -10 1 C-6.80261338 -0.59869331 -3.469833 -0.51085495 0 0 Z " fill="#F6C5B1" transform="translate(85,53)"/>
<path d="M0 0 C1.51400391 0.01740234 1.51400391 0.01740234 3.05859375 0.03515625 C4.07050781 0.04417969 5.08242188 0.05320312 6.125 0.0625 C7.29869141 0.07990234 7.29869141 0.07990234 8.49609375 0.09765625 C6.39235897 4.08368005 4.39082967 6.7608147 0.49609375 9.09765625 C-2.26473052 9.4209498 -4.70854159 9.2871725 -7.50390625 9.09765625 C-9.62890625 4.47265625 -9.62890625 4.47265625 -8.50390625 1.09765625 C-7.29734375 1.12859375 -7.29734375 1.12859375 -6.06640625 1.16015625 C-3.05975097 1.08682319 -2.98370507 0.11636915 0 0 Z " fill="#F18068" transform="translate(47.50390625,78.90234375)"/>
<path d="M0 0 C0.53109375 0.40992188 1.0621875 0.81984375 1.609375 1.2421875 C2.66898438 2.05042969 2.66898438 2.05042969 3.75 2.875 C4.44609375 3.40867188 5.1421875 3.94234375 5.859375 4.4921875 C7.94160786 6.04762691 7.94160786 6.04762691 10.21875 7.0625 C12 8 12 8 12.75 10.125 C12.87375 11.053125 12.87375 11.053125 13 12 C12.01 11.67 11.02 11.34 10 11 C9.36384766 12.14275391 9.36384766 12.14275391 8.71484375 13.30859375 C4.92821635 19.97472243 0.89988894 26.10226134 -4 32 C-4 26.03677688 -2.39550998 22.89352909 1 18 C1.515625 16.96875 2.03125 15.9375 2.5625 14.875 C3.84228861 12.31542277 5.20836552 10.21821411 7 8 C6.21625 7.608125 5.4325 7.21625 4.625 6.8125 C1.64843582 4.75725331 1.01176437 3.40320742 0 0 Z " fill="#A15535" transform="translate(61,55)"/>
<path d="M0 0 C3.26088535 1.6981896 6.2520493 2.65778109 9.8203125 3.46875 C9.8203125 3.79875 9.8203125 4.12875 9.8203125 4.46875 C4.34849094 4.99488669 0.96235385 4.26984778 -4.0546875 1.96875 C-11.64905201 -1.4257008 -18.1179308 -1.22846194 -26.1796875 0.46875 C-26.5096875 -0.52125 -26.8396875 -1.51125 -27.1796875 -2.53125 C-16.35233417 -5.39806696 -10.02329464 -5.43462523 0 0 Z " fill="#D9803D" transform="translate(52.1796875,64.53125)"/>
<path d="M0 0 C2.0625 1.25 2.0625 1.25 3 3 C2.875 5.125 2.875 5.125 2 7 C-0.88211302 7.96070434 -2.69850044 8.10581883 -5.6875 8.0625 C-6.89986328 8.04896484 -6.89986328 8.04896484 -8.13671875 8.03515625 C-9.05904297 8.01775391 -9.05904297 8.01775391 -10 8 C-10.66 6.68 -11.32 5.36 -12 4 C-8.41511333 -0.77984889 -5.6103522 -0.62337247 0 0 Z " fill="#F2C8B5" transform="translate(22,48)"/>
<path d="M0 0 C0.33 0 0.66 0 1 0 C1.26218749 3.14624993 1.24754367 4.61837017 -0.5 7.3125 C-0.995 7.869375 -1.49 8.42625 -2 9 C-1.39671875 9.10957031 -0.7934375 9.21914063 -0.171875 9.33203125 C0.62734375 9.49058594 1.4265625 9.64914063 2.25 9.8125 C3.03890625 9.96332031 3.8278125 10.11414062 4.640625 10.26953125 C7.25904109 11.08019981 8.91104512 12.25121897 11 14 C10.10539062 13.97679687 9.21078125 13.95359375 8.2890625 13.9296875 C0.91087242 13.81956526 -5.84445343 14.15340734 -13 16 C-11.66981679 12.94877405 -11.13439831 12.08362562 -8.1875 10.25 C-4.60592023 7.72182604 -3.09692584 5.36283287 -0.98046875 1.609375 C-0.65691406 1.07828125 -0.33335938 0.5471875 0 0 Z " fill="#F0BA6D" transform="translate(37,47)"/>
<path d="M0 0 C0.86625 0.226875 1.7325 0.45375 2.625 0.6875 C4.1409375 0.4090625 4.1409375 0.4090625 5.6875 0.125 C8.87705896 -0.3500407 9.9807924 -0.04140497 12.625 1.6875 C12.295 2.6775 11.965 3.6675 11.625 4.6875 C10.37783203 4.77837891 10.37783203 4.77837891 9.10546875 4.87109375 C7.47544922 4.99677734 7.47544922 4.99677734 5.8125 5.125 C4.73355469 5.20621094 3.65460937 5.28742188 2.54296875 5.37109375 C-0.43489905 5.58962461 -0.43489905 5.58962461 -3.375 6.6875 C-4.365 6.3575 -5.355 6.0275 -6.375 5.6875 C-6.705 6.6775 -7.035 7.6675 -7.375 8.6875 C-7.029156 5.57490396 -6.50120033 3.85877187 -4.625 1.3125 C-2.375 -0.3125 -2.375 -0.3125 0 0 Z " fill="#9E473F" transform="translate(45.375,74.3125)"/>
<path d="M0 0 C0.66 0.66 1.32 1.32 2 2 C2.99 2 3.98 2 5 2 C5 2.99 5 3.98 5 5 C4.34 5.66 3.68 6.32 3 7 C2.71397838 11.14509433 2.71397838 11.14509433 4 15 C10.92088947 15.60709557 13.67113839 14.44071801 19 10 C17.77887666 13.79905038 15.41115343 15.46811729 11.94140625 17.30078125 C8.65426691 18.48468053 6.27396979 18.00737532 3 17 C0.38496306 14.18332166 -0.57371693 11.67653186 -1.3125 7.9375 C-1.49425781 7.08027344 -1.67601562 6.22304687 -1.86328125 5.33984375 C-2 3 -2 3 0 0 Z " fill="#8E2E16" transform="translate(36,72)"/>
<path d="M0 0 C2.20187672 2.20187672 3.28178929 4.22885682 4.6875 7 C5.14511719 7.886875 5.60273437 8.77375 6.07421875 9.6875 C6.37972656 10.450625 6.68523438 11.21375 7 12 C6.67 12.66 6.34 13.32 6 14 C4.66666667 13.33333333 3.33333333 12.66666667 2 12 C2 11.34 2 10.68 2 10 C1.2575 9.855625 0.515 9.71125 -0.25 9.5625 C-1.88387844 9.22829759 -3.51281795 8.86425407 -5.125 8.4375 C-7.1660264 7.88638519 -7.1660264 7.88638519 -10 8 C-12.1875 6 -12.1875 6 -14 4 C-12.41590006 4.11487748 -10.83271037 4.24234508 -9.25 4.375 C-7.92742188 4.47941406 -7.92742188 4.47941406 -6.578125 4.5859375 C-4.00933618 4.99850055 -2.24158985 5.71160957 0 7 C0 4.69 0 2.38 0 0 Z " fill="#F0E7D6" transform="translate(57,2)"/>
<path d="M0 0 C4.39163959 3.4830245 5.66060714 7.7438977 7 13 C7 13.66 7 14.32 7 15 C5.68 14.67 4.36 14.34 3 14 C2.67 12.35 2.34 10.7 2 9 C1.67 9.99 1.34 10.98 1 12 C-0.65 12 -2.3 12 -4 12 C-4 10.35 -4 8.7 -4 7 C-3.01 7 -2.02 7 -1 7 C-0.67 4.69 -0.34 2.38 0 0 Z " fill="#DD7F36" transform="translate(55,40)"/>
<path d="M0 0 C0.556875 0.70125 1.11375 1.4025 1.6875 2.125 C2.8321875 3.548125 2.8321875 3.548125 4 5 C4.66 5.928125 5.32 6.85625 6 7.8125 C9.33264689 11.88106261 13.92288942 14.34845737 18.35546875 17.0703125 C20.98882193 18.99184347 22.02969853 19.94027634 23 23 C23 24.32 23 25.64 23 27 C22.34 27 21.68 27 21 27 C20.67 25.948125 20.34 24.89625 20 23.8125 C18.26868949 19.73448424 15.82042467 18.29613699 12.0546875 16.171875 C6.28610869 12.88181104 2.4106159 8.58100784 -1 3 C-0.67 2.01 -0.34 1.02 0 0 Z " fill="#6D6561" transform="translate(8,75)"/>
<path d="M0 0 C-0.99 0.33 -1.98 0.66 -3 1 C-4.05008653 2.97416268 -5.04987876 4.97582866 -6 7 C-8 9 -8 9 -11.125 9.125 C-12.07375 9.08375 -13.0225 9.0425 -14 9 C-14 9.66 -14 10.32 -14 11 C-15.32 10.67 -16.64 10.34 -18 10 C-13.99110688 4.43927729 -7.42562557 -2.71094267 0 0 Z " fill="#EADFD2" transform="translate(43,15)"/>
<path d="M0 0 C0.99 0.33 1.98 0.66 3 1 C3 3.64 3 6.28 3 9 C3.66 9 4.32 9 5 9 C5 9.99 5 10.98 5 12 C7.78918149 13.10540926 7.78918149 13.10540926 10 13 C10.33 14.32 10.66 15.64 11 17 C9 18 9 18 6 18 C5.34 18.33 4.68 18.66 4 19 C3.49689942 17.2092015 2.99761372 15.41733089 2.5 13.625 C2.2215625 12.62726563 1.943125 11.62953125 1.65625 10.6015625 C1 8 1 8 1 6 C0.34 6 -0.32 6 -1 6 C-1.33 6.99 -1.66 7.98 -2 9 C-2.125 5.625 -2.125 5.625 -2 2 C-1.34 1.34 -0.68 0.68 0 0 Z " fill="#EEE3D7" transform="translate(9,53)"/>
<path d="M0 0 C1.74609375 1.51953125 1.74609375 1.51953125 3 3 C2.31292969 2.89300781 1.62585938 2.78601562 0.91796875 2.67578125 C0.01691406 2.55589844 -0.88414063 2.43601563 -1.8125 2.3125 C-2.70582031 2.18488281 -3.59914063 2.05726562 -4.51953125 1.92578125 C-7.03397346 1.76780354 -7.03397346 1.76780354 -8.7890625 3.30078125 C-10.5178665 5.72668363 -10.59048934 8.07492385 -11 11 C-12.07122072 14.07083272 -13.18220885 16.27331328 -15 19 C-13.02 19 -11.04 19 -9 19 C-9 19.33 -9 19.66 -9 20 C-11.97 20 -14.94 20 -18 20 C-17.505 19.29875 -17.01 18.5975 -16.5 17.875 C-14.77835379 15.1156415 -14.77835379 15.1156415 -15 12.125 C-15 8.09693738 -13.89929459 5.52726138 -12 2 C-8.58385621 -0.91004841 -4.25083604 -0.33736794 0 0 Z " fill="#D19148" transform="translate(52,37)"/>
<path d="M0 0 C0.99 0.33 1.98 0.66 3 1 C2.67 1.66 2.34 2.32 2 3 C3.65 3.33 5.3 3.66 7 4 C6.67 5.65 6.34 7.3 6 9 C3.69 9.66 1.38 10.32 -1 11 C-2.1577506 7.52674819 -2.06866652 4.63932552 -2 1 C-1.34 0.67 -0.68 0.34 0 0 Z " fill="#611E19" transform="translate(38,64)"/>
<path d="M0 0 C0.66 0.66 1.32 1.32 2 2 C1.34 2 0.68 2 0 2 C0.020625 2.804375 0.04125 3.60875 0.0625 4.4375 C0 7 0 7 -1 8 C-2.99958364 8.04080783 -5.00045254 8.04254356 -7 8 C-7 6.35 -7 4.7 -7 3 C-7.66 2.67 -8.32 2.34 -9 2 C-5.54754176 -0.30163882 -4.05261287 -0.34490322 0 0 Z " fill="#F2B252" transform="translate(51,38)"/>
<path d="M0 0 C3.2535714 3.2535714 4.21831171 7.85718809 5.70117188 12.14648438 C5.95318359 12.84966797 6.20519531 13.55285156 6.46484375 14.27734375 C6.687771 14.91921631 6.91069824 15.56108887 7.14038086 16.22241211 C8.12113292 18.25048816 9.41234861 19.42559974 11 21 C11 21.66 11 22.32 11 23 C10.34 23 9.68 23 9 23 C9 22.01 9 21.02 9 20 C8.01 19.67 7.02 19.34 6 19 C2.40718893 16.06042731 1.02181524 13.51301732 0 9 C-0.14773756 5.99107828 -0.12037524 3.00938111 0 0 Z " fill="#CABEB6" transform="translate(6,60)"/>
<path d="M0 0 C1.8125 0.5 1.8125 0.5 4 2 C7.07589924 8.045733 7.26736608 12.40358861 6 19 C4.12222204 16.18333306 3.38697308 14.26813641 2.5 11.0625 C1.78028089 8.46916429 1.10123693 6.19187133 -0.15625 3.80859375 C-0.4346875 3.21175781 -0.713125 2.61492187 -1 2 C-0.67 1.34 -0.34 0.68 0 0 Z " fill="#9F5336" transform="translate(28,66)"/>
<path d="M0 0 C2.49361571 1.20381448 4.68143083 2.45428722 7 4 C7 5.32 7 6.64 7 8 C6.505 7.835 6.01 7.67 5.5 7.5 C-0.06869464 6.38626107 -4.90102784 6.45051392 -10 9 C-7.05508463 5.80967502 -5.23990994 3.90855213 -1 3 C-0.67 2.01 -0.34 1.02 0 0 Z " fill="#FCF9EE" transform="translate(19,42)"/>
<path d="M0 0 C0.33 0.66 0.66 1.32 1 2 C-1.67075688 8.83892557 -5.07155226 13.86061937 -11.36328125 17.68359375 C-13.38692927 19.31120564 -13.63049137 20.47770198 -14 23 C-15.32 22.34 -16.64 21.68 -18 21 C-17.7890625 19.125 -17.7890625 19.125 -17 17 C-14.9609375 15.9375 -14.9609375 15.9375 -12.375 15 C-5.60177362 11.93453116 -3.1178178 6.47308531 0 0 Z " fill="#724F33" transform="translate(38,42)"/>
<path d="M0 0 C1.65 1.32 3.3 2.64 5 4 C4.67 4.66 4.34 5.32 4 6 C3.32244338 7.62048958 2.65732101 9.24619721 2 10.875 C1.649375 11.73867187 1.29875 12.60234375 0.9375 13.4921875 C0.12861415 15.65595715 -0.49741981 17.74885959 -1 20 C-1.66 20 -2.32 20 -3 20 C-2.68955976 17.60388361 -2.37671642 15.20812165 -2.0625 12.8125 C-1.97548828 12.13896484 -1.88847656 11.46542969 -1.79882812 10.77148438 C-1.32174523 7.14918834 -0.76987965 3.57196415 0 0 Z " fill="#D3C8BD" transform="translate(92,59)"/>
<path d="M0 0 C0.53109375 0.40992188 1.0621875 0.81984375 1.609375 1.2421875 C2.31578125 1.78101563 3.0221875 2.31984375 3.75 2.875 C4.44609375 3.40867188 5.1421875 3.94234375 5.859375 4.4921875 C7.94160786 6.04762691 7.94160786 6.04762691 10.21875 7.0625 C12 8 12 8 12.75 10.125 C12.87375 11.053125 12.87375 11.053125 13 12 C12.01 11.67 11.02 11.34 10 11 C8.68 13.31 7.36 15.62 6 18 C5 16 5 16 5 13 C4.67 12.34 4.34 11.68 4 11 C4.99 10.01 5.98 9.02 7 8 C6.21625 7.608125 5.4325 7.21625 4.625 6.8125 C1.64843582 4.75725331 1.01176437 3.40320742 0 0 Z " fill="#7D4729" transform="translate(61,55)"/>
<path d="M0 0 C0.66 0.66 1.32 1.32 2 2 C-1.28976808 3.09658936 -2.71303767 2.79953138 -6 2 C-6.33 3.65 -6.66 5.3 -7 7 C-6.34 7 -5.68 7 -5 7 C-5 7.66 -5 8.32 -5 9 C-7.4375 8.3125 -7.4375 8.3125 -10 7 C-10.8125 4.375 -10.8125 4.375 -11 2 C-6.93150591 -0.71232939 -4.83523216 -0.30699887 0 0 Z " fill="#F1CAB9" transform="translate(85,53)"/>
<path d="M0 0 C0.66 0 1.32 0 2 0 C1.57202798 5.70629354 -0.84345952 9.41078616 -4 14 C-5.5625 12.3125 -5.5625 12.3125 -7 10 C-6.6875 7.25 -6.6875 7.25 -6 5 C-4.35 5.33 -2.7 5.66 -1 6 C-1.020625 5.195625 -1.04125 4.39125 -1.0625 3.5625 C-1 1 -1 1 0 0 Z " fill="#F6F0E1" transform="translate(35,41)"/>
<path d="M0 0 C2.4375 1.875 2.4375 1.875 4 4 C4 4.66 4 5.32 4 6 C3.278125 5.67 2.55625 5.34 1.8125 5 C-1.13097512 3.95343107 -2.91235533 3.61404442 -6 4 C-8.76441969 5.40759341 -8.76441969 5.40759341 -11 7 C-10.61502006 4.76711635 -10.10506663 3.16343698 -8.875 1.25 C-5.86480161 -0.75679893 -3.51317877 -0.43144301 0 0 Z " fill="#251510" transform="translate(76,43)"/>
<path d="M0 0 C1.51305227 0.87360756 3.01021638 1.77477763 4.5 2.6875 C5.75296875 3.43580078 5.75296875 3.43580078 7.03125 4.19921875 C9 6 9 6 9.28125 8.70703125 C9.1884375 9.46371094 9.095625 10.22039063 9 11 C8.01 11.495 8.01 11.495 7 12 C6.566875 11.54625 6.13375 11.0925 5.6875 10.625 C3.89201658 8.79975666 3.89201658 8.79975666 1 7 C1.66 7 2.32 7 3 7 C1.35 5.02 -0.3 3.04 -2 1 C-1.34 0.67 -0.68 0.34 0 0 Z " fill="#F5EEE0" transform="translate(70,16)"/>
<path d="M0 0 C0.639375 0.804375 1.27875 1.60875 1.9375 2.4375 C3.98985201 5.41459488 3.98985201 5.41459488 7.0390625 6.23828125 C13.32428961 6.41867296 16.82865156 5.59745978 22 2 C20.97386916 4.97577944 20.03368909 5.97754061 17.375 7.75 C13.38546465 9.22760569 10.194105 9.89873679 6 9 C3.3657921 7.59360087 2.06837289 6.27521018 0 4 C0 2.68 0 1.36 0 0 Z " fill="#6F3419" transform="translate(34,85)"/>
<path d="M0 0 C6.49226262 -0.35737225 11.41753889 0.80080396 17.5 3 C18.32242188 3.28617187 19.14484375 3.57234375 19.9921875 3.8671875 C21.99866411 4.5671212 23.99991026 5.28201907 26 6 C26 6.33 26 6.66 26 7 C19.361931 7.63827587 14.94259318 5.99051751 8.9296875 3.19140625 C5.9317369 1.97223967 3.20041131 1.41310947 0 1 C0 0.67 0 0.34 0 0 Z " fill="#BE6435" transform="translate(36,62)"/>
<path d="M0 0 C0.66 0.33 1.32 0.66 2 1 C2 1.66 2 2.32 2 3 C2.9590625 3.3403125 2.9590625 3.3403125 3.9375 3.6875 C6 5 6 5 6.75 7.625 C6.8325 8.40875 6.915 9.1925 7 10 C3.98968256 10.93423645 3.13349732 11.04449911 0 10 C0.50603992 7.83125748 0.99983813 6.00032373 2 4 C1.01 3.67 0.02 3.34 -1 3 C-0.67 2.01 -0.34 1.02 0 0 Z " fill="#EFECE1" transform="translate(21,62)"/>
<path d="M0 0 C0.99 0.33 1.98 0.66 3 1 C9.08568662 1.23294845 9.08568662 1.23294845 15 0 C14.67 1.32 14.34 2.64 14 4 C3.84682713 5.61050328 3.84682713 5.61050328 0.3125 3.0625 C-0.120625 2.381875 -0.55375 1.70125 -1 1 C-0.67 0.67 -0.34 0.34 0 0 Z " fill="#C5ACA8" transform="translate(37,92)"/>
<path d="M0 0 C0.66 0.33 1.32 0.66 2 1 C-0.32591721 3.60502727 -2.57762679 5.4147554 -5.625 7.0625 C-9.16137593 8.75951367 -9.16137593 8.75951367 -11 12 C-11.99 11.67 -12.98 11.34 -14 11 C-11.82736582 6.68419109 -9.69432341 4.85827354 -5.4375 2.625 C-4.46683594 2.10164063 -3.49617188 1.57828125 -2.49609375 1.0390625 C-1.67238281 0.69617188 -0.84867188 0.35328125 0 0 Z " fill="#635756" transform="translate(83,90)"/>
<path d="M0 0 C3.63 0 7.26 0 11 0 C9.19587357 3.26460973 8.16605307 4.88929795 5 7 C4.01 6.67 3.02 6.34 2 6 C2.33 4.35 2.66 2.7 3 1 C2.01 0.67 1.02 0.34 0 0 Z " fill="#E4705B" transform="translate(45,79)"/>
<path d="M0 0 C3.0625 0.3125 3.0625 0.3125 5 1.5625 C6.0625 3.3125 6.0625 3.3125 5.75 5.5 C5.4096875 6.3971875 5.4096875 6.3971875 5.0625 7.3125 C4.2271875 6.57 4.2271875 6.57 3.375 5.8125 C0.68087017 4.06495633 -0.79125007 4.05031251 -3.9375 4.3125 C-3.9375 4.9725 -3.9375 5.6325 -3.9375 6.3125 C-4.5975 6.3125 -5.2575 6.3125 -5.9375 6.3125 C-5.12541707 2.25208537 -4.43312263 0.47160879 0 0 Z " fill="#32261E" transform="translate(26.9375,38.6875)"/>
<path d="M0 0 C-3.4921697 2.66674777 -7.11140875 5.0869537 -10.78125 7.5 C-12.90757183 8.93751335 -14.96044491 10.44252157 -17 12 C-16.43626113 8.52736857 -15.39149033 7.08682935 -12.6875 4.875 C-12.09324219 4.37742187 -11.49898437 3.87984375 -10.88671875 3.3671875 C-7.16979292 0.67376298 -4.61589128 -0.2564384 0 0 Z " fill="#74685D" transform="translate(41,13)"/>
<path d="M0 0 C1.32 0 2.64 0 4 0 C4 0.66 4 1.32 4 2 C4.495 1.814375 4.99 1.62875 5.5 1.4375 C9.15081689 0.79860704 12.33964724 1.45094709 16 2 C16 2.33 16 2.66 16 3 C14.75283203 3.09087891 14.75283203 3.09087891 13.48046875 3.18359375 C11.85044922 3.30927734 11.85044922 3.30927734 10.1875 3.4375 C8.56908203 3.55931641 8.56908203 3.55931641 6.91796875 3.68359375 C3.94010095 3.90212461 3.94010095 3.90212461 1 5 C0.01 4.67 -0.98 4.34 -2 4 C-2.33 4.99 -2.66 5.98 -3 7 C-2.25 2.25 -2.25 2.25 0 0 Z " fill="#C35A4B" transform="translate(41,76)"/>
<path d="M0 0 C3.11450382 4.15267176 3.11450382 4.15267176 2.6875 7.3125 C2.460625 7.869375 2.23375 8.42625 2 9 C-1.82946843 7.54744301 -3.12050295 5.57104439 -5 2 C-2 0 -2 0 0 0 Z " fill="#FAF9EE" transform="translate(73,55)"/>
<path d="M0 0 C1.65 0.99 3.3 1.98 5 3 C2.56979135 6.01345872 1.28094069 6.93592581 -2.5625 7.8125 C-6 8 -6 8 -9 7 C-9 6.34 -9 5.68 -9 5 C-6.36 5 -3.72 5 -1 5 C-0.67 3.35 -0.34 1.7 0 0 Z " fill="#ED8B43" transform="translate(64,60)"/>
<path d="M0 0 C1.875 0.125 1.875 0.125 4 1 C5.25 4.0625 5.25 4.0625 6 7 C4.02 7.99 4.02 7.99 2 9 C0.50178941 5.62902617 0 3.79557881 0 0 Z " fill="#ED802F" transform="translate(59,57)"/>
<path d="M0 0 C0.66 0 1.32 0 2 0 C2 0.99 2 1.98 2 3 C3.32 2.67 4.64 2.34 6 2 C5.79375 2.556875 5.5875 3.11375 5.375 3.6875 C4.89304789 6.659538 5.73434972 8.31979941 7 11 C6.01 11.33 5.02 11.66 4 12 C3.7525 10.72125 3.505 9.4425 3.25 8.125 C2.48009414 4.73252682 2.48009414 4.73252682 -0.125 2.5 C-0.74375 2.335 -1.3625 2.17 -2 2 C-1.34 1.34 -0.68 0.68 0 0 Z " fill="#C5C0C5" transform="translate(27,90)"/>
<path d="M0 0 C1.65 0 3.3 0 5 0 C6.03321725 3.28750944 6.20141923 4.57797876 4.6875 7.75 C3 10 3 10 1 11 C1.66 9.02 2.32 7.04 3 5 C2.01 4.34 1.02 3.68 0 3 C0 2.01 0 1.02 0 0 Z " fill="#681C13" transform="translate(54,71)"/>
<path d="M0 0 C4.39163959 3.4830245 5.66060714 7.7438977 7 13 C7 13.66 7 14.32 7 15 C5.68 14.67 4.36 14.34 3 14 C2.95101562 13.40832031 2.90203125 12.81664062 2.8515625 12.20703125 C2.43543133 7.80895528 1.95034405 4.03071103 0 0 Z " fill="#BB753F" transform="translate(55,40)"/>
<path d="M0 0 C0.68359375 1.640625 0.68359375 1.640625 1 4 C-0.21484375 6.796875 -0.21484375 6.796875 -1.9375 9.75 C-2.50339844 10.73484375 -3.06929687 11.7196875 -3.65234375 12.734375 C-4.09707031 13.48203125 -4.54179687 14.2296875 -5 15 C-5.66 15 -6.32 15 -7 15 C-5.34292168 9.35086937 -3.52237988 4.73699363 0 0 Z " fill="#7C726A" transform="translate(23,23)"/>
<path d="M0 0 C0.66 0 1.32 0 2 0 C2.69710731 1.28650706 3.38242876 2.57940665 4.0625 3.875 C4.63677734 4.95394531 4.63677734 4.95394531 5.22265625 6.0546875 C5.47917969 6.69664063 5.73570313 7.33859375 6 8 C5.67 8.66 5.34 9.32 5 10 C4.34 9.01 3.68 8.02 3 7 C2.34 7.66 1.68 8.32 1 9 C0.01 8.67 -0.98 8.34 -2 8 C-1.67 7.67 -1.34 7.34 -1 7 C-0.63239269 4.67182036 -0.29758419 2.3381615 0 0 Z " fill="#F1E3D3" transform="translate(90,53)"/>
<path d="M0 0 C0.66 0.33 1.32 0.66 2 1 C-0.77635232 5.01028669 -3.40521193 8.67149253 -7 12 C-7.99 11.67 -8.98 11.34 -10 11 C-9.44570312 10.45730469 -8.89140625 9.91460937 -8.3203125 9.35546875 C-7.23363281 8.28232422 -7.23363281 8.28232422 -6.125 7.1875 C-5.40570313 6.47980469 -4.68640625 5.77210937 -3.9453125 5.04296875 C-1.84641063 2.95600806 -1.84641063 2.95600806 0 0 Z " fill="#CDC6C8" transform="translate(88,80)"/>
<path d="M0 0 C0.66 0 1.32 0 2 0 C1.52758009 4.25177923 -0.84964071 6.29969203 -4 9 C-4.99 9 -5.98 9 -7 9 C-5.76465298 5.29395893 -3.80264776 3.66251537 -1 1 C-0.67 0.67 -0.34 0.34 0 0 Z " fill="#DC7F54" transform="translate(56,81)"/>
<path d="M0 0 C0.99 0 1.98 0 3 0 C3.99 4.29 4.98 8.58 6 13 C5.01 12.67 4.02 12.34 3 12 C2.67 9.03 2.34 6.06 2 3 C0.02 3.99 0.02 3.99 -2 5 C-1.34 3.35 -0.68 1.7 0 0 Z " fill="#D8BBB3" transform="translate(29,78)"/>
<path d="M0 0 C2.35171131 0.59861742 4.6859378 1.26924352 7 2 C7.33 2.66 7.66 3.32 8 4 C7.67 4.99 7.34 5.98 7 7 C5.35 7 3.7 7 2 7 C1.855625 6.401875 1.71125 5.80375 1.5625 5.1875 C1.1127561 3.43849596 0.57107659 1.71322977 0 0 Z " fill="#B4B3BC" transform="translate(31,95)"/>
<path d="M0 0 C3.82669043 3.42388092 5.72278474 6.00724943 7 11 C6.01 11.33 5.02 11.66 4 12 C2.18757677 7.9811485 0.66498383 4.38889325 0 0 Z " fill="#9E9088" transform="translate(81,22)"/>
<path d="M0 0 C3.67980288 0.3538272 6.06224521 1.49092583 9.25 3.3125 C9.25 3.6425 9.25 3.9725 9.25 4.3125 C4.55976546 3.74643721 -0.09500026 3.12712495 -4.75 2.3125 C-2.75 0.3125 -2.75 0.3125 0 0 Z " fill="#FED46A" transform="translate(38.75,56.6875)"/>
<path d="M0 0 C1.485 0.99 1.485 0.99 3 2 C3.60680723 6.24765058 2.26523734 9.96705597 1 14 C0.67 14 0.34 14 0 14 C-0.19532961 12.2300132 -0.38098882 10.45895721 -0.5625 8.6875 C-0.66691406 7.70136719 -0.77132812 6.71523437 -0.87890625 5.69921875 C-1 3 -1 3 0 0 Z " fill="#807269" transform="translate(96,61)"/>
<path d="M0 0 C1.55693206 2.33539809 2.90200646 4.57968756 4.1875 7.0625 C4.55230469 7.75472656 4.91710937 8.44695313 5.29296875 9.16015625 C5.52628906 9.76730469 5.75960937 10.37445313 6 11 C5.67 11.66 5.34 12.32 5 13 C2.64829956 10.86209051 1.11208165 8.99406599 0 6 C-0.125 2.75 -0.125 2.75 0 0 Z " fill="#9C9289" transform="translate(92,49)"/>
<path d="M0 0 C0.33 0 0.66 0 1 0 C1.3125 2.1875 1.3125 2.1875 1 5 C-1.3125 7.8125 -1.3125 7.8125 -4 10 C-4.99 10 -5.98 10 -7 10 C-5.85821872 8.33055479 -4.71147095 6.6645052 -3.5625 5 C-2.92441406 4.071875 -2.28632812 3.14375 -1.62890625 2.1875 C-1.09136719 1.465625 -0.55382813 0.74375 0 0 Z " fill="#F6DC9E" transform="translate(37,47)"/>
<path d="M0 0 C-0.54226981 3.79588866 -2.20127563 5.47211993 -5 8 C-5.66 7.67 -6.32 7.34 -7 7 C-3.86206897 0 -3.86206897 0 0 0 Z " fill="#7F7776" transform="translate(91,84)"/>
<path d="M0 0 C0.66 0 1.32 0 2 0 C2 0.66 2 1.32 2 2 C3.98 2 5.96 2 8 2 C7.67 2.66 7.34 3.32 7 4 C5.783125 3.95875 4.56625 3.9175 3.3125 3.875 C-0.21894127 3.86245492 -2.80003566 4.40001783 -6 6 C-4 4 -2 2 0 0 Z " fill="#FAEDE0" transform="translate(15,45)"/>
<path d="M0 0 C0.66 0 1.32 0 2 0 C2.33 2.64 2.66 5.28 3 8 C2.2575 7.54625 1.515 7.0925 0.75 6.625 C-1.46930578 5.31359204 -3.67967822 4.11719197 -6 3 C-2.25 1.875 -2.25 1.875 0 3 C0 2.01 0 1.02 0 0 Z " fill="#A19789" transform="translate(55,3)"/>
<path d="M0 0 C-1.98 2.97 -1.98 2.97 -4 6 C-4.33 4.68 -4.66 3.36 -5 2 C-6.65 2 -8.3 2 -10 2 C-10 1.67 -10 1.34 -10 1 C-3.375 -1.125 -3.375 -1.125 0 0 Z " fill="#6B1904" transform="translate(66,68)"/>
<path d="M0 0 C0.94875 0.350625 1.8975 0.70125 2.875 1.0625 C2.215 1.7225 1.555 2.3825 0.875 3.0625 C0.875 2.4025 0.875 1.7425 0.875 1.0625 C-0.115 1.5575 -0.115 1.5575 -1.125 2.0625 C-1.78055119 4.58983235 -1.78055119 4.58983235 -2.125 7.0625 C-3.445 6.7325 -4.765 6.4025 -6.125 6.0625 C-5.465 5.7325 -4.805 5.4025 -4.125 5.0625 C-4.455 3.4125 -4.785 1.7625 -5.125 0.0625 C-3.125 -0.9375 -3.125 -0.9375 0 0 Z " fill="#DBD2C3" transform="translate(36.125,39.9375)"/>
<path d="M0 0 C-0.33 1.65 -0.66 3.3 -1 5 C-1.680625 4.525625 -2.36125 4.05125 -3.0625 3.5625 C-6.41841956 1.7774364 -9.24161481 1.36846914 -13 1 C-13 0.67 -13 0.34 -13 0 C-8.38926889 -1.29676812 -4.66159911 -0.71109139 0 0 Z " fill="#F8E9D7" transform="translate(91,52)"/>
<path d="M0 0 C0.66 0.33 1.32 0.66 2 1 C1.6875 2.875 1.6875 2.875 1 5 C0.01 5.66 -0.98 6.32 -2 7 C-2.99 6.01 -3.98 5.02 -5 4 C-4.67 3.34 -4.34 2.68 -4 2 C-3.34 2.33 -2.68 2.66 -2 3 C-1.67 2.34 -1.34 1.68 -1 1 C-0.67 0.67 -0.34 0.34 0 0 Z " fill="#F5EEE1" transform="translate(24,34)"/>
<path d="M0 0 C2.875 0.25 2.875 0.25 6 1 C6.66 2.32 7.32 3.64 8 5 C5.03 4.01 2.06 3.02 -1 2 C-0.67 1.34 -0.34 0.68 0 0 Z " fill="#7C6D60" transform="translate(70,24)"/>
<path d="M0 0 C0.33 0.66 0.66 1.32 1 2 C2.32 1.67 3.64 1.34 5 1 C5.33 1.66 5.66 2.32 6 3 C4.39773045 3.22245393 2.79303233 3.42746669 1.1875 3.625 C0.29417969 3.74101562 -0.59914063 3.85703125 -1.51953125 3.9765625 C-4 4 -4 4 -7 2 C-4.69 1.34 -2.38 0.68 0 0 Z " fill="#A19485" transform="translate(45,10)"/>
<path d="M0 0 C0.66 0.33 1.32 0.66 2 1 C1.690625 1.598125 1.38125 2.19625 1.0625 2.8125 C-0.10209704 5.08956772 -0.10209704 5.08956772 -1 8 C-1.99 8.33 -2.98 8.66 -4 9 C-4.8125 7.3125 -4.8125 7.3125 -5 5 C-2.5625 2.25 -2.5625 2.25 0 0 Z " fill="#C4ABA6" transform="translate(57,86)"/>
<path d="M0 0 C0 0.33 0 0.66 0 1 C-8.93617021 3.53191489 -8.93617021 3.53191489 -14 1 C-8.80451575 -1.20808081 -5.41735797 -0.93402724 0 0 Z " fill="#500C08" transform="translate(55,73)"/>
<path d="M0 0 C0.99 0.495 0.99 0.495 2 1 C2.7166207 3.31847874 3.38242027 5.65319703 4 8 C4.33 8.66 4.66 9.32 5 10 C3.68 9.67 2.36 9.34 1 9 C0.67 6.03 0.34 3.06 0 0 Z " fill="#D6825B" transform="translate(34,79)"/>
<path d="M0 0 C0.66 0 1.32 0 2 0 C2.33 1.32 2.66 2.64 3 4 C1.02 4.99 1.02 4.99 -1 6 C-1 5.34 -1 4.68 -1 4 C-1.99 4 -2.98 4 -4 4 C-3.67 3.01 -3.34 2.02 -3 1 C-2.01 1.33 -1.02 1.66 0 2 C0 1.34 0 0.68 0 0 Z " fill="#F4F0E3" transform="translate(29,24)"/>
<path d="M0 0 C0.33 0.66 0.66 1.32 1 2 C-0.98 4.97 -0.98 4.97 -3 8 C-3.99 7.67 -4.98 7.34 -6 7 C-2.25 1.125 -2.25 1.125 0 0 Z " fill="#C16D44" transform="translate(67,67)"/>
<path d="M0 0 C0.66 0.33 1.32 0.66 2 1 C2 1.66 2 2.32 2 3 C3.32 3.66 4.64 4.32 6 5 C5.67 5.66 5.34 6.32 5 7 C4.01 6.67 3.02 6.34 2 6 C2 5.34 2 4.68 2 4 C1.01 3.67 0.02 3.34 -1 3 C-0.67 2.01 -0.34 1.02 0 0 Z " fill="#EADBD1" transform="translate(21,62)"/>
<path d="M0 0 C0.33 0 0.66 0 1 0 C1 1.65 1 3.3 1 5 C2.98 4.67 4.96 4.34 7 4 C5.35 5.32 3.7 6.64 2 8 C1.01 7.34 0.02 6.68 -1 6 C-0.67 4.02 -0.34 2.04 0 0 Z " fill="#F9F4E2" transform="translate(37,33)"/>
<path d="M0 0 C0.763125 0.0825 1.52625 0.165 2.3125 0.25 C2.3125 1.24 2.3125 2.23 2.3125 3.25 C-0.3275 3.58 -2.9675 3.91 -5.6875 4.25 C-3.34903846 0.31153846 -3.34903846 0.31153846 0 0 Z " fill="#6B5B4E" transform="translate(32.6875,20.75)"/>
<path d="M0 0 C0.66 0 1.32 0 2 0 C2 1.98 2 3.96 2 6 C2.66 6.33 3.32 6.66 4 7 C2.35 7.33 0.7 7.66 -1 8 C-1 7.34 -1 6.68 -1 6 C-1.66 5.67 -2.32 5.34 -3 5 C-2.01 4.67 -1.02 4.34 0 4 C0 2.68 0 1.36 0 0 Z " fill="#F8E8DA" transform="translate(24,50)"/>
<path d="M0 0 C0.33 0.66 0.66 1.32 1 2 C-1.3125 2.6875 -1.3125 2.6875 -4 3 C-5.8125 1.5625 -5.8125 1.5625 -7 0 C-4.30234372 -1.34882814 -2.84835666 -0.80338265 0 0 Z " fill="#DED1CA" transform="translate(30,43)"/>
<path d="M0 0 C4.75 0.75 4.75 0.75 7 3 C6.625 5.125 6.625 5.125 6 7 C4.5 5.6875 4.5 5.6875 3 4 C3 3.01 3 2.02 3 1 C2.01 0.67 1.02 0.34 0 0 Z " fill="#25120C" transform="translate(26,39)"/>
<path d="M0 0 C1.32 0 2.64 0 4 0 C3.67 1.65 3.34 3.3 3 5 C2.01 5 1.02 5 0 5 C0 3.35 0 1.7 0 0 Z " fill="#FED76D" transform="translate(45,40)"/>
<path d="M0 0 C-0.99 0.33 -1.98 0.66 -3 1 C-4.37195574 2.29355827 -5.71182656 3.62298702 -7 5 C-7.33 3.68 -7.66 2.36 -8 1 C-4.93251126 -0.86240388 -3.40254489 -1.2151946 0 0 Z " fill="#F0EADB" transform="translate(43,15)"/>
<path d="M0 0 C1.69752187 0.25245197 3.38471545 0.57645775 5.0625 0.9375 C5.98160156 1.13214844 6.90070312 1.32679687 7.84765625 1.52734375 C8.91306641 1.76130859 8.91306641 1.76130859 10 2 C10 2.33 10 2.66 10 3 C8.741875 3.04125 7.48375 3.0825 6.1875 3.125 C5.47980469 3.14820312 4.77210937 3.17140625 4.04296875 3.1953125 C2 3 2 3 -1 1 C-0.67 0.67 -0.34 0.34 0 0 Z " fill="#B75E2F" transform="translate(52,66)"/>
<path d="M0 0 C1.65 0.99 3.3 1.98 5 3 C3.68 4.32 2.36 5.64 1 7 C0 4 0 4 0 0 Z " fill="#DE8147" transform="translate(64,60)"/>
<path d="M0 0 C0.33 0 0.66 0 1 0 C1.36923077 4.55384615 1.36923077 4.55384615 -0.5 6.8125 C-0.995 7.204375 -1.49 7.59625 -2 8 C-2.6875 6.25 -2.6875 6.25 -3 4 C-1.625 1.75 -1.625 1.75 0 0 Z " fill="#D4B8B4" transform="translate(61,81)"/>
<path d="M0 0 C1.32 0.66 2.64 1.32 4 2 C4 2.66 4 3.32 4 4 C2.35 4.33 0.7 4.66 -1 5 C-0.67 3.35 -0.34 1.7 0 0 Z " fill="#6B2521" transform="translate(38,70)"/>
<path d="M0 0 C0.33 0 0.66 0 1 0 C1 2.31 1 4.62 1 7 C0.01 7.33 -0.98 7.66 -2 8 C-2.125 5.125 -2.125 5.125 -2 2 C-1.34 1.34 -0.68 0.68 0 0 Z " fill="#E3DDCF" transform="translate(89,45)"/>
<path d="M0 0 C0.33 1.32 0.66 2.64 1 4 C-1.475 5.485 -1.475 5.485 -4 7 C-3.43628586 3.73045798 -2.50037734 2.17424117 0 0 Z " fill="#38271F" transform="translate(69,43)"/>
</svg>
